# xmcd
#
# Track frame offsets:
#	150
#	14428
#	30232
#	47481
#	63647
#	79214
#	95992
#	114778
#	132016
#	150563
#	163697
#	180444
#	195228
#	211605
#
# Disc length: 3018 seconds
# Revision: 0
# Processed by: cddbd v1.5.2PL0 Copyright (c) Steve Scherf et al.
# Submitted via: dBpowerAMP V12.0
#
DISCID=a40bc80e
DTITLE=Ronnie Dunn - Ronnie Dunn
DYEAR=2011
DGENRE=Country
TTITLE0=I Love My Country
TTITLE1=Singer In A Cowboy Band
TTITLE2=I Don't Dance
TTITLE3=Your Kind Of Love
TTITLE4=How Far To Waco
TTITLE5=Once
TTITLE6=Cost Of Livin'
TTITLE7=Bleed Red
TTITLE8=Last Love I'm Tryin'
TTITLE9=Let The Cowboy Rock
TTITLE10=I Can't Help Myself
TTITLE11=I Just Get Lonely
TTITLE12=Love Owes Me One
TTITLE13=Keep On Lovin' You
EXTD=
EXTT0=
EXTT1=
EXTT2=
EXTT3=
EXTT4=
EXTT5=
EXTT6=
EXTT7=
EXTT8=
EXTT9=
EXTT10=
EXTT11=
EXTT12=
EXTT13=
PLAYORDER=
